<svg id="icons" xmlns="http://www.w3.org/2000/svg" viewBox="0 0 64 64"><defs><style>.cls-1{fill:#7fa0d1;}.cls-2{fill:#faae64;}</style></defs><title>Location_Icon</title><rect class="cls-1" x="13" y="31" width="5" height="2"/><rect class="cls-1" x="31" y="46" width="2" height="5"/><rect class="cls-1" x="46" y="31" width="5" height="2"/><path class="cls-2" d="M192,408a15,15,0,0,1-7.5-2,1,1,0,1,1,1-1.73,13,13,0,0,0,17.76-17.76,1,1,0,0,1,1.73-1A15,15,0,0,1,192,408Z" transform="translate(-160 -361)"/><path class="cls-2" d="M198.81,393.58l-1.63-1.16L207,378.68V378h-0.68l-13.74,9.81-1.16-1.63,14-10A1,1,0,0,1,206,376h2a1,1,0,0,1,1,1v2a1,1,0,0,1-.19.58Z" transform="translate(-160 -361)"/><path class="cls-2" d="M178,410h-2a1,1,0,0,1-1-1v-2a1,1,0,0,1,.19-0.58l10-14,1.63,1.16L177,407.32V408h0.68l13.74-9.81,1.16,1.63-14,10A1,1,0,0,1,178,410Z" transform="translate(-160 -361)"/><path class="cls-2" d="M192,400a7,7,0,1,1,7-7A7,7,0,0,1,192,400Zm0-12a5,5,0,1,0,5,5A5,5,0,0,0,192,388Z" transform="translate(-160 -361)"/><rect class="cls-1" x="31" y="31" width="2" height="2"/><path class="cls-2" d="M192,425a32,32,0,1,1,32-32A32,32,0,0,1,192,425Zm0-62a30,30,0,1,0,30,30A30,30,0,0,0,192,363Z" transform="translate(-160 -361)"/><rect class="cls-1" x="31" y="13" width="2" height="5"/><rect class="cls-1" x="6" y="31" width="2" height="2"/><rect class="cls-1" x="31" y="6" width="2" height="2"/><rect class="cls-1" x="56" y="31" width="2" height="2"/><rect class="cls-1" x="31" y="56" width="2" height="2"/><path class="cls-2" d="M179.87,401a1,1,0,0,1-.87-0.5A15,15,0,0,1,199.5,380a1,1,0,1,1-1,1.73,13,13,0,0,0-17.76,17.76A1,1,0,0,1,179.87,401Z" transform="translate(-160 -361)"/></svg>