<svg id="Layer_1" data-name="Layer 1" xmlns="http://www.w3.org/2000/svg" viewBox="0 0 64 62"><defs><style>.cls-1{fill:#7fa0d1;}.cls-2{fill:#faae64;}</style></defs><title>Delivery_Icon</title><path class="cls-1" d="M402,273c-0.39-5.53-4.22-9-10-9h-0.42A16.7,16.7,0,0,0,377,256a17,17,0,0,0-17,16,13,13,0,0,0-7.69,22.71l1.33-1.49A11,11,0,0,1,361,274h1v-1a15,15,0,0,1,15-15,14.7,14.7,0,0,1,13.13,7.48l0.29,0.52H392c5.9,0,8,4.13,8,8v1h1c5.13,0,9,4.3,9,10a11.08,11.08,0,0,1-3.67,8.25l1.33,1.49A13.08,13.08,0,0,0,412,285C412,278.51,407.75,273.54,402,273Z" transform="translate(-348 -256)"/><path class="cls-1" d="M377,264v-2c-5.86,0-11,5.61-11,12h2C368,268.28,372.75,264,377,264Z" transform="translate(-348 -256)"/><path class="cls-2" d="M380,285a11,11,0,1,0,11,11A11,11,0,0,0,380,285Zm0,20a9,9,0,1,1,9-9A9,9,0,0,1,380,305Z" transform="translate(-348 -256)"/><path class="cls-1" d="M395.13,288.28l4.28-4.28L392,276.59l-4.28,4.28a16.87,16.87,0,0,0-2.72-1.12V274H375v5.75a16.87,16.87,0,0,0-2.72,1.12L368,276.59,360.59,284l4.28,4.28a16.87,16.87,0,0,0-1.12,2.72H358v10h5.75a16.86,16.86,0,0,0,1.12,2.72L360.59,308l7.41,7.41,4.28-4.28a16.87,16.87,0,0,0,2.72,1.12V318h10v-5.75a16.87,16.87,0,0,0,2.72-1.12l4.28,4.28,7.41-7.41-4.28-4.28a16.86,16.86,0,0,0,1.12-2.72H402V291h-5.75A16.87,16.87,0,0,0,395.13,288.28ZM363.28,299H360v-6h3.28A16.13,16.13,0,0,0,363.28,299ZM377,276h6v3.28a16.13,16.13,0,0,0-6,0V276Zm-13.59,8,4.59-4.59,2.5,2.5a17.14,17.14,0,0,0-4.59,4.59ZM368,312.59L363.41,308l2.5-2.5a17.14,17.14,0,0,0,4.59,4.59ZM383,316h-6v-3.28a16.13,16.13,0,0,0,6,0V316Zm4.17-6.83c-0.31.17-.63,0.32-1,0.46s-0.8.34-1.22,0.49a14.72,14.72,0,0,1-10,0c-0.41-.15-0.82-0.31-1.22-0.49s-0.64-.29-1-0.46a15.1,15.1,0,0,1-6-6c-0.17-.31-0.32-0.63-0.46-1s-0.34-.8-0.49-1.22a14.72,14.72,0,0,1,0-10c0.15-.41.31-0.82,0.49-1.22s0.29-.64.46-1a15.1,15.1,0,0,1,6-6c0.31-.17.63-0.32,1-0.46s0.8-.34,1.22-0.49a14.72,14.72,0,0,1,10,0c0.41,0.15.82,0.31,1.22,0.49s0.64,0.29,1,.46a15.1,15.1,0,0,1,6,6c0.17,0.31.32,0.63,0.46,1s0.34,0.8.49,1.22a14.72,14.72,0,0,1,0,10c-0.15.41-.31,0.82-0.49,1.22s-0.29.64-.46,1A15.1,15.1,0,0,1,387.17,309.17Zm9.42-1.17L392,312.59l-2.5-2.5a17.14,17.14,0,0,0,4.59-4.59Zm-2.5-21.5a17.14,17.14,0,0,0-4.59-4.59l2.5-2.5,4.59,4.59Zm2.63,6.5H400v6h-3.28A16.13,16.13,0,0,0,396.72,293Z" transform="translate(-348 -256)"/><path class="cls-1" d="M380,290a6,6,0,1,0,6,6A6,6,0,0,0,380,290Zm3.44,8a4,4,0,1,1,.56-2A4,4,0,0,1,383.44,298Z" transform="translate(-348 -256)"/><polygon class="cls-2" points="31 40 31 41 33 41 33 40 33 39 31 39 31 40"/></svg>