<svg xmlns="http://www.w3.org/2000/svg" xmlns:xlink="http://www.w3.org/1999/xlink" width="625" height="140" viewBox="0 0 625 140" version="1.1">
  <title>
    Group 5
  </title>
  <desc>
    Created with Sketch.
  </desc>
  <defs>
    <polygon id="path-1" points="0 103 462.87 103 462.87 0.65 0 0.65"/>
  </defs>
  <g id="Page-1" stroke="none" stroke-width="1" fill="none" fill-rule="evenodd">
    <g id="Desktop" transform="translate(-175.000000, -444.000000)">
      <g id="Group-5" transform="translate(175.000000, 444.000000)">
        <g id="Group-4">
          <g id="Group-3">
            <path d="M70 140L70 0C31.34 0 0 31.34 0 70 0 108.66 31.34 140 70 140" id="Fill-4" fill="#4577BB"/>
            <path d="M70 0L70 140C108.66 140 140 108.66 140 70 140 31.34 108.66 0 70 0Z" id="Fill-1" fill="#F68A1F"/>
          </g>
          <g id="Group-2" transform="translate(24.000000, 24.000000)">
            <path d="M46 0L46 92C71.4 92 92 71.4 92 46 92 20.6 71.4 0 46 0Z" id="Fill-7" fill="#F9AE63"/>
            <path d="M46 0C20.6 0 0 20.6 0 46 0 71.4 20.6 92 46 92L46 0Z" id="Fill-9" fill="#7DA0D0"/>
          </g>
          <g id="Group" transform="translate(47.000000, 47.000000)">
            <path d="M23 0L23 45.66C35.7 45.66 46 35.44 46 22.83 46 10.22 35.7 0 23 0Z" id="Fill-11" fill="#FBCB9A"/>
            <path d="M23 0C10.3 0 0 10.22 0 22.83 0 35.44 10.3 45.66 23 45.66L23 0Z" id="Fill-13" fill="#ABC2E0"/>
          </g>
        </g>
        <g id="Page-1" transform="translate(162.000000, 18.000000)">
          <polygon id="Fill-1" fill="#F9AE63" points="209 75 209 102 228 102 228 96.33 216.03 96.33 216.03 91.33 226.42 91.33 226.42 85.65 216.03 85.65 216.03 80.67 228 80.67 228 75"/>
          <polygon id="Fill-2" fill="#F9AE63" points="252.01 75 252.01 91.19 240.99 75 234 75 234 102 240.99 102 240.99 85.93 252.11 102 259 102 259 75"/>
          <polygon id="Fill-3" fill="#F9AE63" points="265 75 265 80.95 272.92 80.95 272.92 102 280.01 102 280.01 80.95 288 80.95 288 75"/>
          <polygon id="Fill-4" fill="#F9AE63" points="293 75 293 102 312 102 312 96.33 300.03 96.33 300.03 91.33 310.42 91.33 310.42 85.65 300.03 85.65 300.03 80.67 312 80.67 312 75"/>
          <g id="Group-31">
            <path d="M325.35 88.36L329.5 88.36C330.45 88.36 331.26 88.03 331.95 87.36 332.64 86.7 332.98 85.85 332.98 84.82 332.98 83.76 332.64 82.9 331.95 82.24 331.26 81.58 330.45 81.24 329.5 81.24L325.35 81.24 325.35 88.36 325.35 88.36ZM318.38 102.68L318.38 75.54 329.05 75.54C332.35 75.54 334.99 76.31 336.98 77.86 338.96 79.4 339.95 81.57 339.95 84.36 339.95 86.52 339.46 88.3 338.47 89.69 337.48 91.08 336.17 92.05 334.52 92.6L341.06 102.68 333.28 102.68 328.25 93.66 325.35 93.66 325.35 102.68 318.38 102.68 318.38 102.68Z" id="Fill-5" fill="#F9AE63"/>
            <path d="M354.22 88.85L357.55 88.85C358.95 88.85 359.97 88.48 360.63 87.73 361.28 86.98 361.61 86.09 361.61 85.06 361.61 84.05 361.28 83.16 360.64 82.4 359.99 81.63 358.96 81.24 357.55 81.24L354.22 81.24 354.22 88.85ZM347.25 102.68L347.25 75.54 358.22 75.54C361.5 75.54 364.05 76.38 365.86 78.04 367.67 79.71 368.58 82.05 368.58 85.06 368.58 88.07 367.67 90.41 365.86 92.07 364.05 93.73 361.5 94.56 358.21 94.56L354.22 94.56 354.22 102.68 347.25 102.68Z" id="Fill-7" fill="#F9AE63"/>
            <path d="M381.64 88.36L385.78 88.36C386.73 88.36 387.55 88.03 388.24 87.36 388.92 86.7 389.27 85.85 389.27 84.82 389.27 83.76 388.92 82.9 388.24 82.24 387.55 81.58 386.73 81.24 385.78 81.24L381.64 81.24 381.64 88.36ZM374.67 102.68L374.67 75.54 385.33 75.54C388.63 75.54 391.27 76.31 393.26 77.86 395.24 79.4 396.24 81.57 396.24 84.36 396.24 86.52 395.74 88.3 394.76 89.69 393.77 91.08 392.45 92.05 390.8 92.6L397.34 102.68 389.56 102.68 384.53 93.66 381.64 93.66 381.64 102.68 374.67 102.68Z" id="Fill-9" fill="#F9AE63"/>
            <mask id="mask-2" fill="white">
              <use xlink:href="#path-1"/>
            </mask>
            <g id="Clip-12"/>
            <polygon id="Fill-11" fill="#F9AE63" mask="url(#mask-2)" points="403.91 102.68 410.88 102.68 410.88 75.54 403.91 75.54"/>
            <path d="M417.74 83.71C417.74 80.92 418.7 78.82 420.62 77.41 422.54 76.01 424.92 75.3 427.76 75.3 430.34 75.3 432.77 75.92 435.05 77.16L435.05 83.25C432.86 81.94 430.77 81.28 428.77 81.28 427.72 81.28 426.77 81.46 425.95 81.81 425.12 82.17 424.71 82.75 424.71 83.57 424.71 84.09 425.01 84.52 425.62 84.87 426.23 85.22 427 85.47 427.94 85.65 428.88 85.82 429.88 86.11 430.94 86.51 432 86.91 433 87.4 433.94 87.97 434.88 88.54 435.65 89.43 436.26 90.63 436.87 91.83 437.17 93.3 437.17 95.02 437.17 97.38 436.22 99.3 434.33 100.78 432.43 102.26 430.13 103 427.43 103 423.71 103 420.59 102.13 418.06 100.39L418.06 93.88C420.55 95.97 423.32 97.02 426.36 97.02L426.42 97.02C427.45 97.02 428.33 96.82 429.08 96.43 429.82 96.04 430.2 95.47 430.2 94.74 430.2 94.24 429.97 93.82 429.51 93.48 429.04 93.13 428.44 92.86 427.7 92.65L425.29 92.04C424.42 91.82 423.53 91.52 422.64 91.13 421.75 90.75 420.94 90.27 420.22 89.71 419.49 89.15 418.89 88.36 418.43 87.33 417.97 86.3 417.74 85.09 417.74 83.71" id="Fill-13" fill="#F9AE63" mask="url(#mask-2)"/>
            <polygon id="Fill-14" fill="#F9AE63" mask="url(#mask-2)" points="444.01 102.68 444.01 75.54 462.87 75.54 462.87 81.24 450.98 81.24 450.98 86.25 461.3 86.25 461.3 91.95 450.98 91.95 450.98 96.98 462.87 96.98 462.87 102.68"/>
            <polygon id="Fill-15" fill="#F9AE63" mask="url(#mask-2)" points="0.62 102.68 0.62 75.54 7.48 75.54 13.86 84.78 20.21 75.54 27.07 75.54 27.07 102.68 20.1 102.68 20.1 85.87 13.86 94.87 7.6 85.87 7.6 102.68"/>
            <path d="M43.52 82.95C42.47 84.09 41.95 86.14 41.95 89.09 41.95 92.05 42.47 94.09 43.52 95.23 44.56 96.37 45.95 96.94 47.68 96.94 49.41 96.94 50.79 96.37 51.84 95.23 52.88 94.09 53.4 92.05 53.4 89.09 53.4 86.14 52.88 84.09 51.84 82.95 50.79 81.81 49.41 81.24 47.68 81.24 45.95 81.24 44.56 81.81 43.52 82.95M35.75 94.91C35.24 93.23 34.98 91.29 34.98 89.09 34.98 86.89 35.24 84.95 35.75 83.27 36.27 81.59 36.94 80.25 37.76 79.27 38.59 78.28 39.58 77.47 40.72 76.84 41.87 76.21 43 75.79 44.11 75.58 45.22 75.37 46.41 75.26 47.68 75.26 48.94 75.26 50.13 75.37 51.24 75.58 52.35 75.79 53.48 76.21 54.63 76.84 55.78 77.47 56.77 78.28 57.59 79.27 58.42 80.25 59.09 81.59 59.6 83.27 60.12 84.95 60.37 86.89 60.37 89.09 60.37 91.29 60.12 93.23 59.6 94.91 59.09 96.6 58.42 97.93 57.59 98.92 56.77 99.9 55.78 100.71 54.63 101.34 53.48 101.97 52.35 102.39 51.24 102.6 50.13 102.81 48.94 102.92 47.68 102.92 46.41 102.92 45.22 102.81 44.11 102.6 43 102.39 41.87 101.97 40.72 101.34 39.58 100.71 38.59 99.9 37.76 98.92 36.94 97.93 36.27 96.6 35.75 94.91" id="Fill-16" fill="#F9AE63" mask="url(#mask-2)"/>
            <path d="M74.92 96.98L78.9 96.98 79.04 96.98C79.95 96.99 80.73 96.76 81.38 96.28 82.05 95.77 82.39 95.01 82.39 94 82.39 92.99 82.01 92.25 81.26 91.78 80.51 91.31 79.68 91.08 78.79 91.08L74.92 91.08 74.92 96.98ZM74.92 86.15L78.51 86.15C79.15 86.15 79.74 85.95 80.27 85.54 80.8 85.13 81.06 84.57 81.06 83.88 81.06 82.95 80.76 82.28 80.15 81.87 79.55 81.45 78.86 81.24 78.09 81.24L74.92 81.24 74.92 86.15ZM67.95 102.68L67.95 75.54 77.21 75.54C84.43 75.54 88.04 78.08 88.04 83.14 88.04 84.02 87.89 84.79 87.6 85.45 87.3 86.11 86.89 86.64 86.37 87.03 85.85 87.42 85.41 87.7 85.05 87.88 84.69 88.06 84.26 88.23 83.79 88.38 87.5 89.43 89.36 91.7 89.36 95.22 89.36 100.19 85.58 102.68 78.03 102.68L67.95 102.68Z" id="Fill-17" fill="#F9AE63" mask="url(#mask-2)"/>
            <polygon id="Fill-18" fill="#F9AE63" mask="url(#mask-2)" points="96.28 102.68 103.26 102.68 103.26 75.54 96.28 75.54"/>
            <polygon id="Fill-19" fill="#F9AE63" mask="url(#mask-2)" points="112.14 102.68 112.14 75.54 119.11 75.54 119.11 96.7 131.14 96.7 131.14 102.68"/>
            <polygon id="Fill-20" fill="#F9AE63" mask="url(#mask-2)" points="137.88 102.68 137.88 75.54 156.74 75.54 156.74 81.24 144.85 81.24 144.85 86.25 155.17 86.25 155.17 91.95 144.85 91.95 144.85 96.98 156.74 96.98 156.74 102.68"/>
            <path d="M9.77 13.74L9.77 59.79 16.34 59.79C19.87 59.79 23.03 59.23 25.83 58.1 28.63 56.97 31 55.37 32.95 53.29 34.9 51.22 36.4 48.77 37.47 45.97 38.53 43.16 39.07 40.05 39.07 36.63 39.07 33.15 38.58 30.01 37.61 27.2 36.63 24.39 35.19 21.99 33.27 20.01 31.35 18.03 28.98 16.48 26.15 15.39 23.32 14.29 20.05 13.74 16.34 13.74L9.77 13.74ZM0 69.68L0 3.94 18.35 3.94C22.91 3.94 27.08 4.75 30.85 6.37 34.62 7.99 37.85 10.24 40.53 13.14 43.2 16.04 45.29 19.49 46.78 23.49 48.27 27.49 49.02 31.84 49.02 36.54 49.02 41.66 48.22 46.29 46.64 50.41 45.06 54.53 42.88 58.01 40.12 60.84 37.35 63.68 34.05 65.86 30.21 67.39 26.38 68.92 22.24 69.68 17.8 69.68L0 69.68Z" id="Fill-21" fill="#4577BB" mask="url(#mask-2)"/>
            <path d="M75.12 27.75C71.84 27.75 69.23 28.91 67.32 31.22 65.4 33.55 64.38 36.53 64.26 40.2L85.16 40.2C85.04 36.35 84.07 33.32 82.24 31.09 80.42 28.86 78.04 27.75 75.12 27.75L75.12 27.75ZM64.26 49.81C64.26 51.4 64.55 52.85 65.13 54.16 65.7 55.47 66.48 56.62 67.45 57.59 68.43 58.57 69.58 59.32 70.92 59.84 72.26 60.36 73.72 60.62 75.31 60.62 77.07 60.62 78.59 60.33 79.87 59.75 81.15 59.17 82.27 58.3 83.25 57.13L89.82 63.18C87.87 65.74 85.65 67.62 83.15 68.81 80.66 70 77.95 70.59 75.03 70.59 68.21 70.59 63.06 68.37 59.56 63.91 56.06 59.46 54.31 53.08 54.31 44.78 54.31 40.69 54.8 36.99 55.77 33.7 56.74 30.4 58.13 27.59 59.92 25.27 61.72 22.96 63.91 21.19 66.5 19.96 69.08 18.74 71.99 18.13 75.21 18.13 78.13 18.13 80.81 18.65 83.25 19.69 85.68 20.73 87.76 22.3 89.5 24.41 91.23 26.51 92.59 29.16 93.56 32.37 94.53 35.57 95.02 39.31 95.02 43.59 95.02 45.11 94.99 46.44 94.93 47.57 94.87 48.7 94.81 49.44 94.75 49.81L64.26 49.81Z" id="Fill-22" fill="#4577BB" mask="url(#mask-2)"/>
            <path d="M103.05 57.41C104.51 58.39 106.46 59.18 108.89 59.79 111.33 60.4 113.67 60.71 115.92 60.71 118.35 60.71 120.38 60.26 121.99 59.38 123.6 58.5 124.41 57.04 124.41 55.03 124.41 53.69 123.92 52.53 122.95 51.55 121.98 50.57 120.68 49.66 119.07 48.8 117.46 47.95 115.63 47.11 113.59 46.29 111.56 45.46 109.47 44.53 107.34 43.49 104.79 42.27 102.85 40.81 101.55 39.1 100.24 37.39 99.58 35.07 99.58 32.14 99.58 29.64 100.12 27.5 101.18 25.73 102.24 23.96 103.66 22.51 105.42 21.38 107.19 20.25 109.2 19.43 111.45 18.91 113.7 18.39 115.98 18.13 118.29 18.13 120.91 18.13 123.32 18.47 125.51 19.14 127.7 19.81 129.67 20.76 131.44 21.98L128.52 32.05C127.18 30.89 125.55 29.93 123.64 29.16 121.72 28.4 119.6 28.02 117.29 28.02 116.5 28.02 115.68 28.05 114.83 28.11 113.97 28.17 113.18 28.36 112.45 28.66 111.72 28.97 111.11 29.41 110.63 29.99 110.14 30.57 109.9 31.35 109.9 32.32 109.9 33 110.13 33.59 110.58 34.11 111.04 34.63 111.87 35.16 113.09 35.71 114.55 36.38 116.47 37.12 118.84 37.91 121.22 38.7 123.54 39.79 125.83 41.16 128.11 42.53 130.07 44.27 131.71 46.38 133.36 48.48 134.18 51.15 134.18 54.39 134.18 57.32 133.66 59.81 132.63 61.85 131.59 63.9 130.18 65.57 128.38 66.89 126.59 68.2 124.5 69.15 122.13 69.73 119.76 70.3 117.23 70.59 114.55 70.59 112.24 70.59 109.81 70.27 107.25 69.63 104.69 68.99 102.14 67.91 99.58 66.38L103.05 57.41Z" id="Fill-23" fill="#4577BB" mask="url(#mask-2)"/>
            <path d="M141.7 69.68L151.47 69.68 151.47 19.05 141.7 19.05 141.7 69.68ZM146.63 13.83C144.92 13.83 143.58 13.19 142.61 11.91 141.64 10.62 141.15 9.1 141.15 7.33 141.15 5.38 141.62 3.78 142.57 2.52 143.51 1.27 144.86 0.65 146.63 0.65 148.09 0.65 149.36 1.27 150.46 2.52 151.56 3.78 152.1 5.38 152.1 7.33 152.1 9.1 151.54 10.62 150.41 11.91 149.29 13.19 148.03 13.83 146.63 13.83L146.63 13.83Z" id="Fill-24" fill="#4577BB" mask="url(#mask-2)"/>
            <path d="M188.8 34.7C188.67 33.67 188.37 32.72 187.88 31.87 187.4 31.01 186.79 30.26 186.06 29.62 185.33 28.98 184.51 28.48 183.59 28.11 182.68 27.75 181.74 27.56 180.76 27.56 176.75 27.56 173.86 29.01 172.09 31.91 170.33 34.81 169.45 38.73 169.45 43.68 169.45 48.87 170.22 52.92 171.77 55.85 173.33 58.78 175.74 60.25 179.03 60.25 182.13 60.25 184.42 59.67 185.88 58.51 187.34 57.35 188.31 56.04 188.8 54.57L188.8 34.7ZM177.48 81.12C180.95 80.27 183.65 78.59 185.6 76.09 187.55 73.58 188.52 70.14 188.52 65.74 187.73 66.9 186.48 67.93 184.78 68.81 183.08 69.69 180.86 70.14 178.12 70.14 174.89 70.14 172.11 69.45 169.77 68.08 167.42 66.7 165.48 64.81 163.92 62.4 162.37 59.99 161.22 57.17 160.46 53.93 159.69 50.7 159.31 47.25 159.31 43.59 159.31 39.56 159.8 35.97 160.77 32.83 161.75 29.69 163.1 27.03 164.84 24.86 166.57 22.7 168.61 21.03 170.95 19.87 173.29 18.71 175.81 18.13 178.48 18.13 181.34 18.13 183.56 18.65 185.15 19.69 186.73 20.73 187.94 21.8 188.8 22.89L188.8 19.05 198.47 19.05 198.47 61.99C198.47 65.77 198.06 69.36 197.24 72.75 196.42 76.13 195.2 79.12 193.59 81.72 191.98 84.31 189.97 86.43 187.56 88.08 185.16 89.73 182.41 90.7 179.3 91.01L177.48 81.12Z" id="Fill-25" fill="#4577BB" mask="url(#mask-2)"/>
            <path d="M236.35 37.63C236.35 34.28 235.5 31.79 233.8 30.17 232.09 28.56 229.96 27.75 227.41 27.75 225.09 27.75 223.16 28.36 221.61 29.58 220.06 30.8 219.01 32.69 218.46 35.25L218.46 69.68 208.7 69.68 208.7 19.05 218.46 19.05 218.46 23.08C219.01 21.92 220.3 20.8 222.34 19.73 224.38 18.67 226.86 18.13 229.78 18.13 232.15 18.13 234.33 18.54 236.31 19.37 238.28 20.19 240 21.38 241.46 22.94 242.93 24.5 244.05 26.43 244.84 28.75 245.63 31.07 246.03 33.7 246.03 36.63L246.03 69.68 236.35 69.68 236.35 37.63Z" id="Fill-26" fill="#4577BB" mask="url(#mask-2)"/>
            <polygon id="Fill-27" fill="#2356A6" mask="url(#mask-2)" points="299.42 28.75 284.63 70.59 283.81 70.59 268.11 28.75 268.11 69.68 256.33 69.68 256.33 3.94 271.12 3.94 284.27 40.2 297.04 3.94 311.19 3.94 311.19 69.68 299.42 69.68"/>
            <path d="M322.04 69.68L333.82 69.68 333.82 18.5 322.04 18.5 322.04 69.68ZM327.98 15.66C325.97 15.66 324.4 14.96 323.28 13.56 322.15 12.15 321.59 10.38 321.59 8.25 321.59 6.05 322.15 4.23 323.28 2.8 324.4 1.36 325.97 0.65 327.98 0.65 329.68 0.65 331.16 1.36 332.4 2.8 333.65 4.23 334.28 6.05 334.28 8.25 334.28 10.38 333.64 12.15 332.36 13.56 331.08 14.96 329.62 15.66 327.98 15.66L327.98 15.66Z" id="Fill-28" fill="#2356A6" mask="url(#mask-2)"/>
            <path d="M371 37.63C371 35.38 370.4 33.44 369.22 31.82 368.03 30.2 366.1 29.4 363.42 29.4 361.65 29.4 360.12 29.9 358.81 30.9 357.5 31.91 356.6 33.24 356.12 34.89L356.12 69.68 344.34 69.68 344.34 18.5 356.12 18.5 356.12 22.25C358.67 19.14 362.17 17.58 366.62 17.58 369.41 17.58 371.83 18.04 373.87 18.96 375.91 19.87 377.58 21.17 378.89 22.85 380.2 24.53 381.16 26.54 381.77 28.89 382.37 31.24 382.68 33.85 382.68 36.72L382.68 69.68 371 69.68 371 37.63Z" id="Fill-29" fill="#2356A6" mask="url(#mask-2)"/>
            <path d="M420.37 36.9C419.7 35.07 418.63 33.56 417.17 32.37 415.71 31.18 414.1 30.58 412.34 30.58 408.87 30.58 406.42 31.81 404.99 34.25 403.56 36.69 402.84 40.2 402.84 44.78 402.84 48.99 403.65 52.28 405.26 54.66 406.87 57.04 409.17 58.23 412.15 58.23 414.28 58.23 416.03 57.58 417.4 56.27 418.77 54.95 419.76 53.41 420.37 51.64L420.37 36.9ZM420.37 66.2C419.15 67.24 417.74 68.23 416.12 69.17 414.51 70.12 412.37 70.59 409.69 70.59 406.89 70.59 404.35 69.97 402.07 68.72 399.79 67.47 397.84 65.7 396.22 63.41 394.61 61.12 393.36 58.39 392.48 55.21 391.6 52.04 391.16 48.56 391.16 44.78 391.16 40.93 391.6 37.35 392.48 34.02 393.36 30.69 394.64 27.82 396.32 25.41 397.99 23 400.01 21.09 402.39 19.69 404.76 18.29 407.47 17.58 410.51 17.58 412.82 17.58 414.74 17.81 416.26 18.27 417.78 18.73 419.15 19.41 420.37 20.33L420.37 6.78 432.05 1.65 432.05 69.59 420.37 69.59 420.37 66.2Z" id="Fill-30" fill="#2356A6" mask="url(#mask-2)"/>
          </g>
        </g>
      </g>
    </g>
  </g>
</svg>
