<svg id="icons" xmlns="http://www.w3.org/2000/svg" viewBox="0 0 46 64"><defs><style>.cls-1{fill:#7fa0d1;}.cls-2{fill:#faae64;}</style></defs><title>Security_Icon</title><path class="cls-1" d="M211,425H173a4,4,0,0,1-4-4V393a4,4,0,0,1,4-4h38a4,4,0,0,1,4,4v28A4,4,0,0,1,211,425Zm-38-34a2,2,0,0,0-2,2v28a2,2,0,0,0,2,2h38a2,2,0,0,0,2-2V393a2,2,0,0,0-2-2H173Z" transform="translate(-169 -361)"/><rect class="cls-2" x="22" y="34" width="2" height="2"/><rect class="cls-2" x="26" y="34" width="2" height="2"/><rect class="cls-2" x="18" y="34" width="2" height="2"/><rect class="cls-2" x="175.76" y="408" width="8.49" height="2" transform="translate(-405.49 -113.93) rotate(-45)"/><rect class="cls-2" x="183.76" y="408" width="8.49" height="2" transform="translate(-403.14 -108.27) rotate(-45)"/><rect class="cls-2" x="191.76" y="408" width="8.49" height="2" transform="translate(-400.8 -102.61) rotate(-45)"/><rect class="cls-2" x="199.76" y="408" width="8.49" height="2" transform="translate(-398.46 -96.96) rotate(-45)"/><rect class="cls-1" x="6" y="44" width="34" height="2"/><rect class="cls-1" x="6" y="50" width="34" height="2"/><path class="cls-1" d="M209,390h-2V378a15,15,0,0,0-30,0v12h-2V378a17,17,0,0,1,34,0v12Z" transform="translate(-169 -361)"/><path class="cls-1" d="M203,387h-2v-9a9,9,0,0,0-18,0v9h-2v-9a11,11,0,0,1,22,0v9Z" transform="translate(-169 -361)"/><rect class="cls-1" x="1" y="56" width="44" height="2"/></svg>