<?xml version="1.0" encoding="UTF-8" standalone="no"?>
<svg width="48px" height="48px" viewBox="0 0 48 48" version="1.1" xmlns="http://www.w3.org/2000/svg" xmlns:xlink="http://www.w3.org/1999/xlink">
    <!-- Generator: Sketch 3.8.2 (29753) - http://www.bohemiancoding.com/sketch -->
    <title>Group 4</title>
    <desc>Created with Sketch.</desc>
    <defs>
        <linearGradient x1="50%" y1="0%" x2="50%" y2="100%" id="linearGradient-1">
            <stop stop-color="#FEE8CA" offset="0%"></stop>
            <stop stop-color="#FBCB9A" offset="100%"></stop>
        </linearGradient>
    </defs>
    <g id="Page-1" stroke="none" stroke-width="1" fill="none" fill-rule="evenodd">
        <g id="Desktop" transform="translate(-175.000000, -444.000000)">
            <g id="Group-5" transform="translate(175.000000, 444.000000)">
                <g id="Group-4">
                    <g id="Group-3">
                        <path d="M24,47.9995325 L24,0 C10.7450965,0 0,10.7450965 0,24 C0,37.254436 10.7450965,47.9995325 24,47.9995325" id="Fill-4" fill="#4577BB"></path>
                        <path d="M24,0 L24,47.9995325 C37.2549035,47.9995325 48,37.2549035 48,24 C48,10.7450965 37.2549035,0 24,0 Z" id="Fill-1" fill="#F68A1F"></path>
                    </g>
                    <g id="Group-2" transform="translate(8.228571, 8.228571)">
                        <path d="M15.7714286,-1.23837448e-14 L15.7714286,31.5428571 C24.4816695,31.5428571 31.5428571,24.4816695 31.5428571,15.7714286 C31.5428571,7.06118763 24.4816695,-1.23837448e-14 15.7714286,-1.23837448e-14 Z" id="Fill-7" fill="#F9AE63"></path>
                        <path d="M15.7714286,-1.23837448e-14 C7.06118763,-1.23837448e-14 0,7.06118763 0,15.7714286 C0,24.4816695 7.06118763,31.5428571 15.7714286,31.5428571 L15.7714286,-1.23837448e-14 Z" id="Fill-9" fill="#7DA0D0"></path>
                    </g>
                    <g id="Group" transform="translate(16.114286, 16.114286)">
                        <path d="M7.88571429,0 L7.88571429,15.7714286 C12.2409633,15.7714286 15.7714286,12.2410675 15.7714286,7.88594701 C15.7714286,3.53082654 12.2409633,0 7.88571429,0 Z" id="Fill-11" fill="url(#linearGradient-1)"></path>
                        <path d="M7.88571429,0 C3.53046528,0 0,3.53082654 0,7.88594701 C0,12.2410675 3.53046528,15.7714286 7.88571429,15.7714286 L7.88571429,0 Z" id="Fill-13" fill="#ABC2E0"></path>
                    </g>
                </g>
            </g>
        </g>
    </g>
</svg>