<svg id="icons" xmlns="http://www.w3.org/2000/svg" viewBox="0 0 56 64"><defs><style>.cls-1{fill:#faae64;}.cls-2{fill:#7fa0d1;}</style></defs><title>Communications_Icon</title><path class="cls-1" d="M510,192a18,18,0,1,1,18-18A18,18,0,0,1,510,192Zm0-34a16,16,0,1,0,16,16A16,16,0,0,0,510,158Z" transform="translate(-484 -148)"/><path class="cls-1" d="M518,212H502a1,1,0,0,1-1-1V194h2v16h14V189h2v22A1,1,0,0,1,518,212Z" transform="translate(-484 -148)"/><path class="cls-1" d="M522,210h-4v-2h3V196h-3v-2h4a1,1,0,0,1,1,1v14A1,1,0,0,1,522,210Z" transform="translate(-484 -148)"/><path class="cls-1" d="M522.52,206.85l-1-1.7L534,197.44V178h2v20a1,1,0,0,1-.48.85Z" transform="translate(-484 -148)"/><path class="cls-1" d="M535,179a5,5,0,1,1,5-5A5,5,0,0,1,535,179Zm0-8a3,3,0,1,0,3,3A3,3,0,0,0,535,171Z" transform="translate(-484 -148)"/><rect class="cls-1" x="521.7" y="196" width="13.6" height="2" transform="translate(-518.56 16.07) rotate(-17.1)"/><rect class="cls-2" x="21" y="48" width="2" height="2"/><rect class="cls-2" x="25" y="48" width="2" height="2"/><rect class="cls-2" x="29" y="48" width="2" height="2"/><rect class="cls-2" x="21" y="52" width="2" height="2"/><rect class="cls-2" x="25" y="52" width="2" height="2"/><rect class="cls-2" x="29" y="52" width="2" height="2"/><rect class="cls-2" x="21" y="56" width="2" height="2"/><rect class="cls-2" x="25" y="56" width="2" height="2"/><rect class="cls-2" x="29" y="56" width="2" height="2"/><path class="cls-2" d="M510,178a4,4,0,1,1,4-4A4,4,0,0,1,510,178Zm0-6a2,2,0,1,0,2,2A2,2,0,0,0,510,172Z" transform="translate(-484 -148)"/><path class="cls-1" d="M510,188v-2a12,12,0,0,0,12-12h2A14,14,0,0,1,510,188Z" transform="translate(-484 -148)"/><path class="cls-1" d="M498,174h-2a14,14,0,0,1,14-14v2A12,12,0,0,0,498,174Z" transform="translate(-484 -148)"/><rect class="cls-1" x="25" width="2" height="6"/><rect class="cls-1" y="25" width="6" height="2"/><rect class="cls-1" x="488.5" y="158.58" width="2" height="5.81" transform="translate(-383.13 352.09) rotate(-59.32)"/><rect class="cls-1" x="497.43" y="150.62" width="2" height="5.76" transform="translate(-494.49 119.5) rotate(-29.74)"/><rect class="cls-1" x="486.59" y="184.48" width="5.81" height="2" transform="translate(-510.15 127.56) rotate(-30.66)"/><rect class="cls-1" x="527.45" y="160.48" width="5.81" height="2" transform="translate(-492.21 145.02) rotate(-30.66)"/><rect class="cls-1" x="518.55" y="152.5" width="5.76" height="2" transform="translate(-354.54 382.07) rotate(-60.26)"/></svg>