<svg id="icons" xmlns="http://www.w3.org/2000/svg" viewBox="0 0 64 56"><defs><style>.cls-1{fill:#7fa0d1;}.cls-2{fill:#faae64;}</style></defs><title>MobileData_Icon</title><path class="cls-1" d="M196,204H164a4,4,0,0,1-4-4V162a4,4,0,0,1,4-4h48a4,4,0,0,1,4,4v6h-2v-6a2,2,0,0,0-2-2H164a2,2,0,0,0-2,2v38a2,2,0,0,0,2,2h32v2Z" transform="translate(-160 -158)"/><rect class="cls-1" x="32" y="46" width="2" height="8"/><rect class="cls-1" x="18" y="46" width="2" height="8"/><rect class="cls-1" x="16" y="54" width="20" height="2"/><rect class="cls-1" x="2" y="36" width="34" height="2"/><rect class="cls-2" x="25" y="40" width="2" height="2"/><path class="cls-1" d="M221,214H201a3,3,0,0,1-3-3V186h2v25a1,1,0,0,0,1,1h20a1,1,0,0,0,1-1V173a1,1,0,0,0-1-1H201a1,1,0,0,0-1,1v3h-2v-3a3,3,0,0,1,3-3h20a3,3,0,0,1,3,3v38A3,3,0,0,1,221,214Z" transform="translate(-160 -158)"/><rect class="cls-2" x="49" y="50" width="4" height="2"/><rect class="cls-2" x="32" y="24" width="22" height="2"/><rect class="cls-2" x="25" y="20" width="19" height="2"/><path class="cls-2" d="M188,183a1,1,0,0,1-.71-0.29L183.59,179l3.71-3.71a1,1,0,0,1,1.41,1.41L186.41,179l2.29,2.29A1,1,0,0,1,188,183Z" transform="translate(-160 -158)"/><path class="cls-2" d="M214,184a1,1,0,0,1-.71-0.29l-3-3a1,1,0,0,1,1.41-1.41l3,3A1,1,0,0,1,214,184Z" transform="translate(-160 -158)"/><path class="cls-2" d="M211,187a1,1,0,0,1-.71-1.71l3-3a1,1,0,0,1,1.41,1.41l-3,3A1,1,0,0,1,211,187Z" transform="translate(-160 -158)"/><rect class="cls-1" x="39" y="46" width="24" height="2"/><polygon class="cls-1" points="6 34 4 34 4 4 52 4 52 6 6 6 6 34"/><rect class="cls-1" x="8" y="12" width="2" height="2"/><rect class="cls-1" x="12" y="12" width="2" height="2"/><rect class="cls-1" x="16" y="12" width="2" height="2"/><rect class="cls-1" x="8" y="16" width="2" height="2"/><rect class="cls-1" x="12" y="16" width="2" height="2"/><rect class="cls-1" x="16" y="16" width="2" height="2"/><rect class="cls-1" x="8" y="20" width="2" height="2"/><rect class="cls-1" x="12" y="20" width="2" height="2"/><rect class="cls-1" x="20" y="12" width="2" height="2"/><rect class="cls-1" x="8" y="8" width="2" height="2"/><rect class="cls-1" x="12" y="8" width="2" height="2"/><rect class="cls-1" x="16" y="8" width="2" height="2"/><rect class="cls-1" x="20" y="8" width="2" height="2"/><rect class="cls-1" x="24" y="12" width="2" height="2"/><rect class="cls-1" x="24" y="8" width="2" height="2"/><rect class="cls-1" x="54" y="38" width="2" height="2"/><rect class="cls-1" x="58" y="38" width="2" height="2"/><rect class="cls-1" x="54" y="34" width="2" height="2"/><rect class="cls-1" x="58" y="34" width="2" height="2"/><rect class="cls-1" x="50" y="34" width="2" height="2"/><rect class="cls-1" x="42" y="38" width="2" height="2"/><rect class="cls-1" x="46" y="38" width="2" height="2"/><rect class="cls-1" x="50" y="38" width="2" height="2"/><rect class="cls-1" x="54" y="42" width="2" height="2"/><rect class="cls-1" x="58" y="42" width="2" height="2"/><rect class="cls-1" x="42" y="42" width="2" height="2"/><rect class="cls-1" x="46" y="42" width="2" height="2"/><rect class="cls-1" x="50" y="42" width="2" height="2"/></svg>